# xmcd
#
# Track frame offsets:
#	182
#	13617
#	26577
#	41610
#	52910
#	66300
#	83495
#	99110
#	113032
#	125072
#	138752
#
# Disc length: 2036
#
# Revision: 5
# Processed by: cddbd v1.5.1PL0 Copyright (c) Steve Scherf et al.
# Submitted via: Media_Universe 3.0
# Normalized: r4:DSETVAR1,TDELIM( - )
#
DISCID=8207f20b
DTITLE=Various Artist - The Complete Motown Anthology Disc 5
DYEAR=1900
DGENRE=Motown
TTITLE0=MARVIN GAYE and KIM WESTON - IT TAKES TWO
TTITLE1=TEMPTATIONS, THE - I WISH IT WOULD RAIN
TTITLE2=THE ORIGINALS - BABYS I'M FOR REAL
TTITLE3=JR. WALKER and THE ALL STARS - WAHT DOES IT TAKE (TO WIN YOUR LOVE)
TTITLE4=MARTHA and THE VANDELLAS - NOWHERE TO RUN
TTITLE5=GLAYS KNIGHT and THE PIPS - FRIENDSHIP TRAIN
TTITLE6=EDWIN STAR - WAR
TTITLE7=SMOKEY ROBINSON and THE MIRACLES - THE TEARS OF A CLOWN
TTITLE8=MARVIN GAYE and TAMMI TERRELL - YOU'RE ALL I NEED TO GET BY
TTITLE9=DIANA ROSS and THE SUPREMES - LOVE CHILD
TTITLE10=STEVIE WONDER - JUST ENOUGH TO EASE THE PAIN
EXTD=
EXTT0=
EXTT1=
EXTT2=
EXTT3=
EXTT4=
EXTT5=
EXTT6=
EXTT7=
EXTT8=
EXTT9=
EXTT10=
PLAYORDER=
